<svg width="1600" height="780" viewBox="0 0 1600 780" fill="none" xmlns="http://www.w3.org/2000/svg">
<g filter="filter0_f_6007_129932">
<g opacity="0.6" filter="url(#filter0_f_6007_129932)">
<path d="M1486.03 1468.2C1340.67 1534.22 910.605 1432.88 822.431 1238.72C734.257 1044.57 1096.74 968.866 1242.1 902.852C1643.77 570.388 1571.08 -108.344 1670.16 205.91C1758.34 400.066 2077.65 1064.04 1486.03 1468.2Z" fill="url(#paint0_linear_6007_129932)" fill-opacity="0.7"/>
</g>
<g filter="url(#filter1_f_6007_129932)">
<path d="M346.551 1555.42C520.986 1592.27 965.391 1377.86 1014.61 1144.87C1063.83 911.882 650.329 916.935 475.894 880.086C-42.3732 614.667 -127.131 -142.905 -159.222 223.662C-208.441 456.652 -396.135 1257.73 346.551 1555.42Z" fill="url(#paint1_linear_6007_129932)" fill-opacity="0.7"/>
</g>
</g>
<defs>
<filter id="filter0_f_6007_129932" x="578.787" y="-105.079" width="1486.63" height="1823.43" filterUnits="userSpaceOnUse" color-interpolation-filters="sRGB">
<feFlood flood-opacity="0" result="BackgroundImageFix"/>
<feBlend mode="normal" in="SourceGraphic" in2="BackgroundImageFix" result="shape"/>
<feGaussianBlur stdDeviation="115" result="effect1_foregroundBlur_6007_129932"/>
</filter>
<filter id="filter1_f_6007_129932" x="-446.669" y="-104.628" width="1695.32" height="1894.2" filterUnits="userSpaceOnUse" color-interpolation-filters="sRGB">
<feFlood flood-opacity="0" result="BackgroundImageFix"/>
<feBlend mode="normal" in="SourceGraphic" in2="BackgroundImageFix" result="shape"/>
<feGaussianBlur stdDeviation="115" result="effect1_foregroundBlur_6007_129932"/>
</filter>
<linearGradient id="paint0_linear_6007_129932" x1="1385.97" y1="1131.6" x2="646.673" y2="949.037" gradientUnits="userSpaceOnUse">
<stop stop-color="#4466D6"/>
<stop offset="1" stop-color="#183EAD" stop-opacity="0"/>
</linearGradient>
<linearGradient id="paint1_linear_6007_129932" x1="374.316" y1="1164.25" x2="1136.23" y2="786.562" gradientUnits="userSpaceOnUse">
<stop stop-color="#2E51C2"/>
<stop offset="1" stop-color="#183EAD" stop-opacity="0"/>
</linearGradient>
</defs>
</svg>